# xmcd
#
# Track frame offsets:
# 150
# 14473
# 28266
# 47622
# 64178
# 82200
# 101016
# 113756
# 131637
# 144270
# 157051
# 166647
# 186832
# 199990
# 214645
# 227222
# 241810
# 258252
# 274349
# 290843
# 307378
#
# Disc length: 4312 seconds
#
#
# Revision: 0
# Processed by: cddbd v1.5.2PL0 Copyright (c) Steve Scherf et al.
# Submitted via: FreeRIP 2.90 
#
DISCID=3f10d615
DTITLE=Sertanejas Inesqueciveis - Sertanejas Inesqueciveis
DYEAR=1900
DGENRE=Sertanejo
TTITLE0=Chrystian e Ralf - Amargurado
TTITLE1=Joao Mineiro e Marciano - Ainda ontem chorei de saudade
TTITLE2=Milionario e Jose Rico - Sonhei com voce
TTITLE3=Juliano e Jardel - Fim de noite
TTITLE4=Chitaozinho e Xororo e Jair Rodrigues - Magestade o sabia
TTITLE5=Matogrosso e Mathias - Pequena lembranca
TTITLE6=Trio Parada Dura - As andorinhas
TTITLE7=Teodoro e Sampaio - Paixao proibida
TTITLE8=Gilberto e Gilmar - Musica da saudade
TTITLE9=Joao Mineiro e Marciano - Amor e amizade
TTITLE10=Milionario e Jose Rico - Estrada da vida
TTITLE11=Joaquim e Manoel - Som de cristal
TTITLE12=Roberta Miranda - Sao tantas coisas
TTITLE13=Chitaozinho e Xororo - Uma noite especial
TTITLE14=Peao Carreiro e Praense - Quarto vizinho
TTITLE15=Trio Parada Dura - Barco de papel
TTITLE16=Matogrosso e Mathias - Noite de devaneio
TTITLE17=Joao Mineiro e Marciano - Seu amor ainda e tudo
TTITLE18=Gilberto e Gilmar - Luz do amanhecer
TTITLE19=Ataide e Alexandre - Madrugada amiga
TTITLE20=Duduca e Dalvan - Rastros na areia
EXTD=
EXTT0=
EXTT1=
EXTT2=
EXTT3=
EXTT4=
EXTT5=
EXTT6=
EXTT7=
EXTT8=
EXTT9=
EXTT10=
EXTT11=
EXTT12=
EXTT13=
EXTT14=
EXTT15=
EXTT16=
EXTT17=
EXTT18=
EXTT19=
EXTT20=
PLAYORDER=
